<?xml version="1.0" standalone="no"?>
<!DOCTYPE svg PUBLIC "-//W3C//DTD SVG 1.1//EN" "http://www.w3.org/Graphics/SVG/1.1/DTD/svg11.dtd" >
<svg xmlns="http://www.w3.org/2000/svg" xmlns:xlink="http://www.w3.org/1999/xlink" version="1.1">
<metadata>
Created by FontForge 20200314 at Tue Feb 25 23:47:43 2014
 By Unknown
Copyright  2006 Veronika Elsner, Guenther Flake GbR; Hamburg. All Rights Reserved.
</metadata>
<defs>
<font id="MontrealTS-DemiBold" horiz-adv-x="616" >
  <font-face 
    font-family="MontrealTS-DemiBold"
    font-weight="400"
    font-stretch="normal"
    units-per-em="1000"
    panose-1="2 0 5 3 2 0 0 2 0 3"
    ascent="784"
    descent="-216"
    x-height="491"
    cap-height="721"
    bbox="-103 -233 1124 1022"
    underline-thickness="50"
    underline-position="-100"
    unicode-range="U+0020-F64D"
  />
<missing-glyph horiz-adv-x="280" 
 />
    <glyph glyph-name=".notdef" horiz-adv-x="280" 
 />
    <glyph glyph-name=".null" horiz-adv-x="0" 
 />
    <glyph glyph-name="nonmarkingreturn" horiz-adv-x="333" 
 />
    <glyph glyph-name="space" unicode=" " horiz-adv-x="290" 
 />
    <glyph glyph-name="exclam" unicode="!" horiz-adv-x="263" 
d="M46 67q0 35 25 60t60 25t60 -25t25 -60t-25 -59.5t-59 -24.5q-36 0 -61 24.5t-25 59.5zM59 205v516h144v-516h-144z" />
    <glyph glyph-name="quotedbl" unicode="&#x22;" horiz-adv-x="418" 
d="M8 442l49 304l145 -25l-97 -295zM202 442l50 304l145 -25l-98 -295z" />
    <glyph glyph-name="numbersign" unicode="#" horiz-adv-x="631" 
d="M38 214l13 60h115l37 172h-116l13 60h115l44 207h60l-44 -207h96l44 207h60l-44 -207h115l-12 -60h-115l-37 -172h115l-13 -60h-115l-44 -207h-60l44 207h-96l-44 -207h-60l44 207h-115zM226 274h96l37 172h-97z" />
    <glyph glyph-name="dollar" unicode="$" horiz-adv-x="529" 
d="M0 108l69 106q81 -105 175 -105q47 0 80 28t33 68q0 36 -23.5 54.5t-107.5 48.5q-111 41 -150.5 86t-39.5 120q0 82 53.5 143t132.5 69l1 80h103v-78q61 -9 97 -30.5t69 -61.5l-78 -95q-62 74 -133 74q-40 0 -67 -23.5t-27 -58.5q0 -31 23 -52q20 -19 98 -47
q108 -39 152 -85.5t44 -126.5q0 -73 -46.5 -143.5t-131.5 -84.5v-87h-103v80q-141 7 -223 121z" />
    <glyph glyph-name="percent" unicode="%" horiz-adv-x="918" 
d="M26 538q0 82 58 140t140 58q81 0 139 -57.5t58 -139.5q0 -81 -58 -138.5t-139 -57.5q-82 0 -140 57t-58 138zM201 11l401 722l97 -54l-401 -722zM498 182q0 82 57.5 139.5t138.5 57.5q82 0 139.5 -57.5t57.5 -139.5q0 -81 -57.5 -138.5t-139.5 -57.5q-81 0 -138.5 57.5
t-57.5 138.5zM224 629q-36 0 -61 -26t-25 -64q0 -37 25 -63.5t60 -26.5t60 26.5t25 63.5t-24.5 63.5t-59.5 26.5zM694 274q-34 0 -59 -27t-25 -65q0 -37 24.5 -64t59.5 -27q36 0 61.5 26.5t25.5 64.5t-25.5 65t-61.5 27z" />
    <glyph glyph-name="ampersand" unicode="&#x26;" horiz-adv-x="696" 
d="M191 424q-70 80 -70 150q0 69 54.5 115t136.5 46q85 0 140.5 -45t55.5 -115q0 -97 -125 -178l131 -152l90 86l88 -88l-94 -89l82 -92l-98 -88l-93 104q-119 -94 -225 -94q-101 0 -168.5 63t-67.5 157q0 140 163 220zM257 576q0 -36 53 -92q66 51 66 89q0 24 -17 40
t-43 16q-25 0 -42 -15t-17 -38zM404 174l-140 163q-52 -34 -74 -61t-22 -59q0 -42 32.5 -74.5t75.5 -32.5q48 0 128 64z" />
    <glyph glyph-name="quotesingle" unicode="'" horiz-adv-x="225" 
d="M8 442l49 304l145 -26l-97 -295z" />
    <glyph glyph-name="parenleft" unicode="(" horiz-adv-x="266" 
d="M168 889l91 -50q-34 -92 -45 -131q-49 -182 -49 -348q0 -165 49 -347q10 -37 45 -132l-91 -50q-40 80 -62 138q-70 193 -70 391q0 195 70 391q18 52 62 138z" />
    <glyph glyph-name="parenright" unicode=")" horiz-adv-x="267" 
d="M6 -119q33 80 49 146q46 175 46 333q0 159 -46 333q-18 68 -49 144l92 49q42 -81 64 -141q69 -191 69 -384q0 -90 -19 -197.5t-50 -193.5q-24 -64 -64 -139z" />
    <glyph glyph-name="asterisk" unicode="*" horiz-adv-x="442" 
d="M24 541l26 115l122 -44l-11 131h118l-13 -132l125 44l27 -116l-126 -17l76 -103l-103 -59l-48 104l-53 -102l-101 65l82 96z" />
    <glyph glyph-name="plus" unicode="+" 
d="M53 302v117h184v184h142v-184h183v-118h-183v-183h-142v184h-184z" />
    <glyph glyph-name="comma" unicode="," horiz-adv-x="225" 
d="M8 -138l49 303l145 -26l-97 -295z" />
    <glyph glyph-name="hyphen" unicode="-" horiz-adv-x="316" 
d="M30 175v140h255v-140h-255z" />
    <glyph glyph-name="period" unicode="." horiz-adv-x="215" 
d="M24 67q0 35 24.5 59.5t59.5 24.5t59.5 -24.5t24.5 -59.5q0 -36 -24.5 -60.5t-59.5 -24.5t-59.5 24.5t-24.5 60.5z" />
    <glyph glyph-name="slash" unicode="/" horiz-adv-x="282" 
d="M6 0l164 744l106 -23l-162 -745z" />
    <glyph glyph-name="zero" unicode="0" 
d="M28 359q0 167 78 271t202 104t202 -104t78 -271t-77.5 -271.5t-202.5 -104.5q-124 0 -202 104.5t-78 271.5zM308 595q-62 0 -98 -63.5t-36 -172.5t36 -172.5t98 -63.5t98 63.5t36 172.5t-36 172.5t-98 63.5z" />
    <glyph glyph-name="one" unicode="1" 
d="M134 0v119h106v483h-105v119h249v-602h106v-119h-356z" />
    <glyph glyph-name="two" unicode="2" 
d="M52 478q0 120 69.5 189.5t189.5 69.5q111 0 182.5 -64.5t71.5 -165.5q1 -70 -34.5 -126.5t-125.5 -130.5l-153 -128h321v-122h-520v101l237 209q68 64 97.5 108.5t29.5 85.5q0 45 -31.5 75t-80.5 30t-78.5 -31t-29.5 -81q0 -9 1 -19h-146z" />
    <glyph glyph-name="three" unicode="3" 
d="M42 224h146q5 -120 115 -120q51 0 85 31.5t34 80.5q0 47 -32.5 75.5t-86.5 28.5q-13 0 -26 -1v113q4 0 9 -0.5t7.5 -1t5.5 -0.5q46 0 74.5 27.5t28.5 70.5q0 40 -28 65.5t-71 25.5q-46 0 -73 -25.5t-29 -71.5h-136q9 101 75 158t172 57q101 0 166 -55.5t65 -140.5
q0 -55 -28.5 -96t-79.5 -59q133 -39 133 -173q0 -99 -75.5 -165t-188.5 -66q-119 0 -188 64t-74 178z" />
    <glyph glyph-name="four" unicode="4" 
d="M37 209l331 512h130v-487h77v-111h-77v-123h-140v123h-296zM334 456l-146 -224h170v219q0 38 14 84q-25 -59 -38 -79z" />
    <glyph glyph-name="five" unicode="5" 
d="M36 90l58 106q64 -91 164 -91q66 0 109.5 40.5t43.5 103.5q0 59 -44 98t-112 39q-39 0 -82 -16l-52 17l79 334h344v-119h-241l-34 -120q33 6 51 6q101 0 168.5 -69.5t67.5 -172.5q0 -113 -80.5 -188t-201.5 -75q-152 0 -238 107z" />
    <glyph glyph-name="six" unicode="6" 
d="M283 456q39 10 68 10q97 0 160 -64.5t63 -163.5q0 -110 -77 -183t-193 -73q-114 0 -188.5 71t-74.5 178q0 64 23.5 112.5t95.5 148.5l183 255l108 -76zM183 232v-5q2 -52 36.5 -85t86.5 -33q56 0 92 35.5t36 91.5q0 53 -35.5 88t-90.5 35q-54 0 -89.5 -36t-35.5 -91z" />
    <glyph glyph-name="seven" unicode="7" 
d="M58 602v119h500v-103l-369 -641l-123 61l336 564h-344z" />
    <glyph glyph-name="eight" unicode="8" 
d="M176 375q-50 20 -77.5 60.5t-27.5 96.5q0 91 65.5 146.5t171.5 55.5t171.5 -55.5t65.5 -146.5q0 -56 -27.5 -96.5t-77.5 -60.5q123 -48 123 -176q0 -95 -71.5 -155.5t-183.5 -60.5t-184 60.5t-72 155.5q0 62 32 108t92 68zM211 528v-6q2 -42 28.5 -68t68.5 -26
q43 0 70 28t27 72q0 41 -27 67.5t-70 26.5t-70 -26.5t-27 -67.5zM201 210v-6q1 -44 31.5 -72.5t75.5 -28.5q46 0 76.5 30.5t30.5 76.5t-30.5 76.5t-76.5 30.5q-47 0 -77 -30.5t-30 -76.5z" />
    <glyph glyph-name="nine" unicode="9" 
d="M334 265q-35 -12 -67 -12q-95 0 -160 65.5t-65 161.5q0 112 77 185t195 73q113 0 186.5 -69.5t73.5 -175.5q1 -62 -23 -115t-86 -140l-189 -265l-108 75zM310 611q-55 0 -91 -36t-36 -91q0 -53 36 -88.5t89 -35.5q54 0 89 36t35 90q0 55 -34 90t-88 35z" />
    <glyph glyph-name="colon" unicode=":" horiz-adv-x="261" 
d="M46 67q0 35 25 59.5t60 24.5t59.5 -24.5t24.5 -59.5t-25 -60t-59 -25q-35 0 -60 24.5t-25 60.5zM46 416q0 36 25 61.5t60 25.5t59.5 -25t24.5 -61q0 -35 -24.5 -59.5t-59.5 -24.5t-60 24.5t-25 58.5z" />
    <glyph glyph-name="semicolon" unicode=";" horiz-adv-x="243" 
d="M17 -138l50 303l145 -26l-97 -295zM38 417q0 35 24.5 60t59.5 25t59.5 -25t24.5 -60t-24.5 -59.5t-60.5 -24.5q-34 0 -58.5 24.5t-24.5 59.5z" />
    <glyph glyph-name="less" unicode="&#x3c;" horiz-adv-x="408" 
d="M30 246l272 244l75 -79l-190 -163l189 -168l-73 -81z" />
    <glyph glyph-name="equal" unicode="=" 
d="M63 384v113h491v-113h-491zM63 224v113h491v-113h-491z" />
    <glyph glyph-name="greater" unicode="&#x3e;" horiz-adv-x="406" 
d="M30 80l191 165l-191 169l75 78l271 -249l-272 -243z" />
    <glyph glyph-name="question" unicode="?" horiz-adv-x="523" 
d="M141 68q0 36 24.5 61t59.5 25t60 -25.5t25 -61.5q0 -35 -25 -59.5t-60 -24.5t-59.5 25t-24.5 60zM1 538q23 96 87 147t161 51q110 0 180 -65t70 -167q0 -127 -116 -186l-49 -25q-20 -12 -29 -21.5t-9.5 -13t-0.5 -16.5v-36h-139v66q0 42 8.5 58t39.5 29q82 30 119.5 61
t37.5 88q0 50 -30.5 82.5t-79.5 32.5q-48 0 -77.5 -28t-36.5 -79z" />
    <glyph glyph-name="at" unicode="@" horiz-adv-x="1209" 
d="M1124 427q0 -85 -30 -149.5t-77.5 -100t-98 -52.5t-100.5 -17h-104v89q-17 -39 -55 -70.5t-102 -31.5q-105 0 -167 71.5t-62 183.5q0 109 64 180t162 71q104 0 159 -92v82h130v-394q84 0 133 68t49 162q0 148 -111.5 234t-278.5 86q-104 0 -190 -32t-142 -86.5t-87 -126
t-31 -151.5q0 -168 103.5 -272.5t298.5 -104.5q60 0 121 9.5t92 18.5l32 10q5 -17 22 -80q-121 -39 -269 -39q-237 0 -368 128.5t-131 328.5q0 137 75.5 247.5t201 170t273.5 59.5q217 0 352.5 -109.5t135.5 -290.5zM719 348q0 61 -33 103t-92 42q-60 0 -93 -46.5t-33 -93.5
q0 -31 11.5 -63t42 -58t73.5 -26q59 0 91.5 39.5t32.5 102.5z" />
    <glyph glyph-name="A" unicode="A" horiz-adv-x="631" 
d="M-29 0l273 721h143l274 -721h-156l-54 156h-270l-55 -156h-155zM296 490l-78 -223h195l-78 223q-18 81 -19 118q0 -19 -2 -36t-3.5 -24.5t-7 -29t-7.5 -28.5z" />
    <glyph glyph-name="B" unicode="B" horiz-adv-x="579" 
d="M46 0v721h215q53 0 90 -5q69 -10 111 -59.5t42 -119.5q0 -106 -91 -148q70 -13 108.5 -60.5t38.5 -119.5q0 -97 -65.5 -153t-178.5 -56h-270zM194 602v-173h64q49 0 77 24t28 65q0 84 -113 84h-56zM194 314v-195h91q60 0 93.5 26t33.5 72q0 49 -36 73t-97 24h-85z" />
    <glyph glyph-name="C" unicode="C" horiz-adv-x="644" 
d="M637 652l-75 -109q-45 28 -77.5 40.5t-73.5 12.5q-100 0 -167 -68t-67 -169q0 -102 66.5 -171t166.5 -69q77 0 152 57l73 -110q-60 -45 -116.5 -63.5t-127.5 -18.5q-158 0 -261 105.5t-103 267.5q0 161 106 269t264 108q66 0 119.5 -17.5t120.5 -64.5z" />
    <glyph glyph-name="D" unicode="D" horiz-adv-x="662" 
d="M46 0v721h213q169 0 272.5 -96.5t103.5 -260.5q0 -160 -99.5 -262t-256.5 -102h-233zM194 591v-461h87q91 0 150 65.5t59 165.5q0 99 -62.5 164.5t-156.5 65.5h-77z" />
    <glyph glyph-name="E" unicode="E" horiz-adv-x="489" 
d="M46 0v721h405v-119h-257v-162h221v-119h-221v-202h265v-119h-413z" />
    <glyph glyph-name="F" unicode="F" horiz-adv-x="417" 
d="M46 0v721h384v-119h-236v-162h205v-119h-205v-321h-148z" />
    <glyph glyph-name="G" unicode="G" horiz-adv-x="777" 
d="M717 571l-128 -77q-71 114 -189 114q-94 0 -159 -74.5t-65 -181.5q0 -105 64.5 -173.5t164.5 -68.5q76 0 127 43.5t63 117.5h-210v129h371q1 -21 1 -53q0 -166 -102 -264t-257 -98q-162 0 -266.5 104.5t-104.5 267.5q0 164 107 271t272 107q138 0 239 -84q32 -28 72 -80z
" />
    <glyph glyph-name="H" unicode="H" horiz-adv-x="667" 
d="M46 0v721h148v-265h280v265h147v-721h-147v326h-280v-326h-148z" />
    <glyph glyph-name="I" unicode="I" horiz-adv-x="240" 
d="M46 0v721h148v-721h-148z" />
    <glyph glyph-name="J" unicode="J" horiz-adv-x="391" 
d="M-22 41l67 110q38 -34 76 -34q44 0 60.5 29t16.5 111v464h148v-482q0 -114 -30 -167q-23 -40 -70 -64t-103 -24q-86 0 -165 57z" />
    <glyph glyph-name="K" unicode="K" horiz-adv-x="582" 
d="M46 0v721h148v-327l228 327h175l-249 -349l276 -372h-175l-255 349v-349h-148z" />
    <glyph glyph-name="L" unicode="L" horiz-adv-x="416" 
d="M46 0v721h148v-591h222v-130h-370z" />
    <glyph glyph-name="M" unicode="M" horiz-adv-x="865" 
d="M14 0l98 721h139l159 -429q17 -45 22 -122q5 75 22 122l159 429h139l98 -721h-146l-46 384q-5 45 -5 83q0 2 2 44q-5 -64 -27 -120l-146 -391h-99l-146 391q-15 42 -31 120q6 -40 6 -89q0 -18 -2 -38l-49 -384h-147z" />
    <glyph glyph-name="N" unicode="N" horiz-adv-x="741" 
d="M46 0v721h141l325 -430q24 -33 54 -116q-19 112 -19 131v415h147v-721h-137l-332 436q-22 29 -54 112l11 -56q4 -23 7 -39.5l4 -22t1 -6.5v-424h-148z" />
    <glyph glyph-name="O" unicode="O" horiz-adv-x="802" 
d="M27 359q0 161 107 269t267 108t267 -107.5t107 -268.5t-107 -269t-267 -108t-267 107.5t-107 268.5zM401 598q-94 -1 -160 -70.5t-66 -168.5q0 -98 66 -167.5t160 -69.5t160 69.5t66 168.5q0 98 -66 168t-160 70z" />
    <glyph glyph-name="P" unicode="P" horiz-adv-x="524" 
d="M46 0v721h218q56 0 91 -6q74 -13 118 -71t44 -143q0 -105 -59.5 -162.5t-166.5 -57.5h-97v-281h-148zM194 601v-201h60q53 0 84 27.5t31 76.5q0 97 -113 97h-62z" />
    <glyph glyph-name="Q" unicode="Q" horiz-adv-x="801" 
d="M664 86l106 -94l-99 -90l-106 115q-79 -33 -163 -33q-162 0 -268.5 106.5t-106.5 269.5q0 161 106.5 268t267.5 107q160 0 266.5 -107t106.5 -268q0 -77 -23 -137.5t-87 -136.5zM401 597q-94 0 -160 -69.5t-66 -168.5q0 -98 66 -167.5t160 -69.5q93 0 159 69.5t66 168.5
q0 98 -66.5 167.5t-158.5 69.5z" />
    <glyph glyph-name="R" unicode="R" horiz-adv-x="551" 
d="M46 0v721h226q65 0 96 -7q71 -16 113 -71.5t42 -134.5q0 -160 -158 -198l204 -310h-173l-202 326v-326h-148zM194 602v-216h56q57 0 90 30t33 82q0 104 -119 104h-60z" />
    <glyph glyph-name="S" unicode="S" horiz-adv-x="529" 
d="M0 108l69 106q81 -105 175 -105q47 0 80 28t33 68q0 36 -23.5 54.5t-107.5 48.5q-111 41 -150.5 86t-39.5 120q0 95 68.5 157.5t173.5 62.5q132 0 214 -98l-78 -95q-62 74 -133 74q-40 0 -67 -23.5t-27 -58.5q0 -31 23 -52q20 -19 98 -47q108 -39 152 -85.5t44 -125.5
q0 -105 -72.5 -172t-185.5 -67q-152 0 -246 124z" />
    <glyph glyph-name="T" unicode="T" horiz-adv-x="446" 
d="M-17 590v131h482v-131h-168v-590h-148v590h-166z" />
    <glyph glyph-name="U" unicode="U" horiz-adv-x="652" 
d="M606 721v-436q0 -70 -8 -112q-19 -88 -92 -139t-178 -51q-140 0 -217 82q-37 39 -51 86.5t-14 133.5v436h148v-423q0 -50 3 -75q6 -47 41 -74.5t88 -27.5q67 0 103 42q18 21 23.5 46.5t5.5 88.5v423h148z" />
    <glyph glyph-name="V" unicode="V" horiz-adv-x="589" 
d="M-29 721h159l146 -437q15 -52 19 -128q3 75 20 128l146 437h157l-261 -721h-125z" />
    <glyph glyph-name="W" unicode="W" horiz-adv-x="947" 
d="M-22 721h148l124 -436q12 -41 15 -131q7 84 20 131l123 436h131l123 -436q13 -58 19 -131q3 87 15 131l125 436h148l-223 -721h-134l-119 424q-14 54 -19 150q-4 -88 -21 -150l-118 -424h-135z" />
    <glyph glyph-name="X" unicode="X" horiz-adv-x="629" 
d="M-15 0l236 386l-202 335h170l86 -151q21 -43 28.5 -66.5t11.5 -67.5q4 46 11.5 70t28.5 64l85 151h170l-201 -335l235 -386h-172l-122 222q-27 53 -35 122q-10 -70 -36 -122l-121 -222h-173z" />
    <glyph glyph-name="Y" unicode="Y" horiz-adv-x="520" 
d="M-36 721h168l106 -216q16 -33 24 -94q3 57 21 95l106 215h167l-223 -403v-318h-146v318z" />
    <glyph glyph-name="Z" unicode="Z" horiz-adv-x="554" 
d="M4 0v70l303 480q24 38 62 64q-57 -23 -91 -23h-241v130h493v-73l-298 -476q-19 -32 -64 -66q58 24 87 24h291v-130h-542z" />
    <glyph glyph-name="bracketleft" unicode="[" horiz-adv-x="270" 
d="M50 -148v1017h214v-124h-73v-769h73v-124h-214z" />
    <glyph glyph-name="backslash" unicode="\" horiz-adv-x="335" 
d="M38 720h108l126 -720h-108z" />
    <glyph glyph-name="bracketright" unicode="]" horiz-adv-x="270" 
d="M8 -148v124h72v769h-72v124h213v-1017h-213z" />
    <glyph glyph-name="asciicircum" unicode="^" horiz-adv-x="373" 
d="M1 612l186 122l185 -122l-43 -78l-142 75l-144 -73z" />
    <glyph glyph-name="underscore" unicode="_" horiz-adv-x="471" 
d="M38 -36v36h360v-36h-360z" />
    <glyph glyph-name="grave" unicode="`" horiz-adv-x="280" 
d="M1 691l114 64l101 -171l-87 -50z" />
    <glyph glyph-name="a" unicode="a" horiz-adv-x="590" 
d="M401 424v67h144v-491h-144v63q-46 -77 -148 -77q-98 0 -162 73t-64 185q0 110 64.5 184.5t160.5 74.5q99 0 149 -79zM286 383q-52 0 -86 -40t-34 -99q0 -61 34.5 -100t88.5 -39q53 0 87.5 39t34.5 100q0 59 -36 99t-89 40z" />
    <glyph glyph-name="b" unicode="b" horiz-adv-x="588" 
d="M46 0v721h144v-292q44 76 144 76q99 0 163 -73.5t64 -186.5q0 -112 -64.5 -186t-162.5 -74q-110 0 -144 79v-64h-144zM297 383q-53 0 -86 -38.5t-33 -101.5q0 -61 34 -98t90 -37q52 0 84 38t32 98q0 61 -33.5 100t-87.5 39z" />
    <glyph glyph-name="c" unicode="c" horiz-adv-x="445" 
d="M442 467l-45 -112q-50 23 -94 23q-56 0 -94 -38t-38 -96q0 -59 37.5 -96.5t96.5 -37.5q45 0 91 28l48 -100q-77 -52 -165 -52q-109 0 -180.5 72.5t-71.5 183.5q0 114 74.5 188t189.5 74q74 0 151 -37z" />
    <glyph glyph-name="d" unicode="d" horiz-adv-x="592" 
d="M402 427v294h144v-721h-144v67q-36 -82 -149 -82q-100 0 -163 72t-63 186q0 111 66 186t164 75q101 0 145 -77zM291 383q-52 0 -86 -39.5t-34 -100.5t34 -99t87 -38q54 0 87.5 38t33.5 100q0 61 -34 100t-88 39z" />
    <glyph glyph-name="e" unicode="e" horiz-adv-x="563" 
d="M536 200h-368q8 -51 40.5 -80.5t79.5 -29.5q34 0 71.5 21.5t59.5 54.5l102 -70q-49 -60 -102.5 -85.5t-129.5 -25.5q-117 0 -189.5 70.5t-72.5 183.5q0 114 73.5 190t184.5 76q112 0 182 -74.5t70 -193.5q0 -4 -0.5 -16.5t-0.5 -20.5zM284 401q-46 0 -76 -28.5t-40 -79.5
h227q-6 51 -35 79.5t-76 28.5z" />
    <glyph glyph-name="f" unicode="f" horiz-adv-x="291" 
d="M-3 372v119h73v71q0 78 47.5 125.5t126.5 47.5q51 0 108 -19l-19 -104q-30 10 -45 10q-75 0 -75 -84v-47h120v-119h-120v-372h-144v372h-72z" />
    <glyph glyph-name="g" unicode="g" horiz-adv-x="591" 
d="M402 428v63h144v-466q0 -116 -72 -172t-200 -56q-80 0 -135 20t-103 68l81 100q63 -75 159 -75q55 0 90.5 28t35.5 72v43q-47 -67 -143 -67q-103 0 -167.5 72t-64.5 185q0 115 63.5 188.5t164.5 73.5q105 0 147 -77zM288 388q-53 0 -86.5 -40t-33.5 -102q0 -63 34 -102.5
t89 -39.5q54 0 87.5 38.5t33.5 100.5q0 64 -35 104.5t-89 40.5z" />
    <glyph glyph-name="h" unicode="h" horiz-adv-x="548" 
d="M46 0v721h144v-290q57 73 144 73q169 0 169 -198v-306h-145v276q0 105 -79 105q-89 0 -89 -125v-256h-144z" />
    <glyph glyph-name="i" unicode="i" horiz-adv-x="236" 
d="M48 0v491h143v-491h-143zM34 630q0 31 25 53.5t60 22.5t60.5 -22.5t25.5 -53.5q0 -32 -25 -54t-61 -22q-35 0 -60 22t-25 54z" />
    <glyph glyph-name="j" unicode="j" horiz-adv-x="236" 
d="M-89 -183l22 109q28 -9 48 -9q38 0 53 21t15 91v462h143v-492q0 -200 -167 -200q-55 0 -114 18zM34 630q0 32 25 54t61 22t60.5 -22t24.5 -54t-24.5 -53.5t-60.5 -21.5t-61 22t-25 53z" />
    <glyph glyph-name="k" unicode="k" horiz-adv-x="518" 
d="M57 0v721h145v-447l155 217h171l-173 -234l195 -257h-178l-170 241v-241h-145z" />
    <glyph glyph-name="l" unicode="l" horiz-adv-x="236" 
d="M46 0v721h144v-721h-144z" />
    <glyph glyph-name="m" unicode="m" horiz-adv-x="822" 
d="M46 0v491h143v-67q50 79 146 79q92 0 133 -74q59 75 151 75q86 0 130 -58q18 -24 22.5 -46t4.5 -86v-314h-144v279q0 49 -14.5 73.5t-53.5 24.5t-60 -29t-21 -82v-266h-144v282q0 96 -67 96q-38 0 -60 -29.5t-22 -80.5v-268h-144z" />
    <glyph glyph-name="n" unicode="n" horiz-adv-x="551" 
d="M46 0v491h144v-72q21 41 61 63t92 22q82 0 127 -53q20 -24 27.5 -54t7.5 -86v-311h-144v275q0 109 -80 109q-43 0 -67 -32t-24 -90v-262h-144z" />
    <glyph glyph-name="o" unicode="o" horiz-adv-x="585" 
d="M27 244q0 113 75 186.5t191 73.5q115 0 190 -73.5t75 -186.5t-75 -186.5t-190 -73.5q-116 0 -191 73.5t-75 186.5zM293 383q-56 0 -93 -39.5t-37 -99.5t37 -99t93 -39q55 0 92 39t37 99t-37 99.5t-92 39.5z" />
    <glyph glyph-name="p" unicode="p" horiz-adv-x="591" 
d="M46 -187v678h144v-74q39 87 151 87q100 0 161.5 -71t61.5 -185q0 -116 -63 -189t-163 -73q-106 0 -148 83v-256h-144zM305 383q-55 0 -89 -38.5t-34 -99.5q0 -63 34.5 -102t89.5 -39q53 0 86.5 38.5t33.5 99.5q0 62 -34 101.5t-87 39.5z" />
    <glyph glyph-name="q" unicode="q" horiz-adv-x="589" 
d="M399 430v61h144v-678h-144v248q-50 -76 -148 -76t-161 72t-63 185q0 115 63.5 188.5t162.5 73.5q95 0 146 -74zM285 384q-52 0 -85.5 -39.5t-33.5 -101.5q0 -61 34.5 -100.5t88.5 -39.5q53 0 86.5 39t33.5 101t-34.5 101.5t-89.5 39.5z" />
    <glyph glyph-name="r" unicode="r" horiz-adv-x="345" 
d="M44 0v491h144v-83q13 46 48.5 71t88.5 25q23 0 48 -6l-26 -139q-27 7 -51 7q-47 0 -77.5 -30t-30.5 -97v-239h-144z" />
    <glyph glyph-name="s" unicode="s" horiz-adv-x="408" 
d="M0 76l71 84q46 -68 110 -68q28 0 45.5 14t17.5 37q0 20 -12.5 31.5t-66.5 29.5q-70 24 -102.5 57t-32.5 86q0 69 51.5 113.5t131.5 44.5q107 0 166 -74l-67 -84q-38 51 -85 51q-23 0 -40 -13t-17 -31t11.5 -26.5t69.5 -29.5q78 -26 106.5 -56.5t28.5 -87.5
q0 -76 -55 -123t-145 -47q-121 0 -186 92z" />
    <glyph glyph-name="t" unicode="t" horiz-adv-x="320" 
d="M-11 372v119h73v122h143v-122h121v-119h-121v-182q0 -46 13 -67t50 -21q22 0 50 9l20 -106q-64 -18 -115 -18q-85 0 -130 55q-19 24 -25 47.5t-6 76.5v206h-73z" />
    <glyph glyph-name="u" unicode="u" horiz-adv-x="554" 
d="M508 491v-282q0 -104 -59.5 -164t-171.5 -60q-97 0 -165 53q-36 29 -51 67.5t-15 103.5v282h144v-268q0 -104 87 -104t87 104v268h144z" />
    <glyph glyph-name="v" unicode="v" horiz-adv-x="463" 
d="M-29 491h150l89 -232q15 -39 21 -98q7 56 22 98l89 232h149l-205 -491h-110z" />
    <glyph glyph-name="w" unicode="w" horiz-adv-x="738" 
d="M-22 491h150l76 -221q15 -46 18 -98q4 46 21 98l73 221h107l73 -221q14 -42 21 -98q4 60 17 98l77 221h149l-183 -491h-108l-77 225q-17 50 -22 108q-12 -72 -24 -108l-76 -225h-109z" />
    <glyph glyph-name="x" unicode="x" horiz-adv-x="497" 
d="M-31 0l196 258l-178 233h175l62 -91q18 -25 25 -65q5 36 25 65l62 91h174l-178 -233l198 -258h-174l-78 112q-19 27 -29 71q-9 -40 -31 -71l-76 -112h-173z" />
    <glyph glyph-name="y" unicode="y" horiz-adv-x="458" 
d="M-29 491h153l87 -236q17 -56 20 -97q14 75 22 96l86 237h155l-217 -527q-43 -100 -81 -132.5t-113 -32.5q-41 0 -80 14l23 120q23 -10 44 -10q32 0 49 20t39 82z" />
    <glyph glyph-name="z" unicode="z" horiz-adv-x="478" 
d="M3 0v67l225 270q23 26 65 57q-64 -22 -84 -22h-175v119h433v-63l-225 -272q-21 -28 -65 -61q49 24 90 24h188v-119h-452z" />
    <glyph glyph-name="braceleft" unicode="{" horiz-adv-x="366" 
d="M38 360q28 0 46.5 21t18.5 51v321q0 40 23.5 62.5t65.5 22.5h109v-65h-13q-33 0 -45 -11.5t-12 -42.5v-272q0 -33 -22.5 -58t-57.5 -29q35 -4 57.5 -29t22.5 -58v-272q0 -31 12 -42.5t45 -11.5h13v-65h-109q-42 0 -65.5 22.5t-23.5 62.5v321q0 31 -18.5 51t-46.5 21z" />
    <glyph glyph-name="bar" unicode="|" horiz-adv-x="199" 
d="M38 0v720h108v-720h-108z" />
    <glyph glyph-name="braceright" unicode="}" horiz-adv-x="366" 
d="M38 -118v65h12q33 0 45 11.5t12 42.5v272q0 33 22.5 58t57.5 29q-35 4 -57.5 29t-22.5 58v272q0 31 -12 42.5t-45 11.5h-12v65h108q43 0 66.5 -22.5t23.5 -62.5v-321q0 -31 18.5 -51.5t46.5 -20.5q-29 0 -47 -20.5t-18 -51.5v-321q0 -40 -23.5 -62.5t-66.5 -22.5h-108z
" />
    <glyph glyph-name="asciitilde" unicode="~" horiz-adv-x="359" 
d="M1 762v96q44 16 83 16q15 0 57 -6l47 -11q46 -8 79 -8q47 0 92 21v-98q-45 -14 -87 -14q-33 0 -89 11q-66 13 -94 13q-39 0 -88 -20z" />
    <glyph glyph-name="exclamdown" unicode="&#xa1;" horiz-adv-x="263" 
d="M46 651q0 35 25 59.5t60 24.5t60 -24.5t25 -59.5q0 -36 -25 -61t-60 -25t-60 25t-25 61zM61 -1v516h138v-516h-138z" />
    <glyph glyph-name="cent" unicode="&#xa2;" horiz-adv-x="444" 
d="M237 494v78h102v-74q51 -7 103 -31l-45 -112q-45 21 -92 21q-60 0 -97 -36.5t-37 -95.5t37.5 -96.5t96.5 -37.5q45 0 91 28l47 -101q-31 -20 -50 -28.5t-54 -16.5v-87h-102v85q-95 14 -152.5 83t-57.5 169t59 170.5t151 81.5z" />
    <glyph glyph-name="sterling" unicode="&#xa3;" horiz-adv-x="569" 
d="M29 0v132l65 133h-64v108h116l85 156q37 69 70.5 106t77.5 62q68 38 162 39v-127q-65 -4 -105 -29.5t-77 -90.5l-67 -116h167v-108h-218l-64 -133h361v-132h-509z" />
    <glyph glyph-name="currency" unicode="&#xa4;" horiz-adv-x="494" 
d="M38 211l58 57q-29 44 -29 94q0 51 29 94l-57 55q16 22 37 40l59 -59q41 31 95 31q51 0 93 -30l58 59q25 -17 38 -42l-56 -54q30 -42 30 -93q0 -53 -32 -97l58 -57l-17 -19q-14 -14 -22 -20l-57 58q-41 -31 -94 -31q-52 0 -93 31l-61 -58l-18 19zM122 360q0 -44 31.5 -76
t76.5 -32q44 0 76 32.5t32 75.5t-32 75.5t-76 32.5q-45 0 -76.5 -32t-31.5 -76z" />
    <glyph glyph-name="yen" unicode="&#xa5;" horiz-adv-x="653" 
d="M30 721h168l107 -216q15 -30 23 -94q3 55 22 95l105 215h168l-153 -279h119v-107h-179l-11 -17v-23h190v-103h-190v-192h-146v192h-187v105h187v21l-8 16h-177v108h121z" />
    <glyph glyph-name="section" unicode="&#xa7;" horiz-adv-x="635" 
d="M131 438q-57 48 -57 110q0 84 70.5 135.5t185.5 51.5q110 0 179.5 -53t82.5 -160l-140 4q-20 90 -138 90q-45 0 -65 -10.5t-20 -33.5q0 -18 15 -30.5t58 -30.5l166 -68q137 -57 137 -190q0 -50 -19 -83.5t-67 -67.5q46 -35 46 -100q0 -87 -69.5 -139.5t-183.5 -52.5
q-124 0 -195.5 59t-72.5 162l143 -4q3 -42 39.5 -72.5t107.5 -30.5q35 0 55.5 13t20.5 35q0 26 -25 38l-208 89q-149 66 -149 182q0 102 103 157zM414 319l-168 69q-86 -45 -86 -91q0 -20 19.5 -39.5t52.5 -33.5l172 -70q41 25 58 45t17 45q0 48 -65 75z" />
    <glyph glyph-name="dieresis" unicode="&#xa8;" horiz-adv-x="343" 
d="M-22 615q0 32 23 54.5t55 22.5t54.5 -23t22.5 -55t-22.5 -55t-54.5 -23t-55 23t-23 56zM209 614q0 32 22.5 55t53.5 23q33 0 56 -23t23 -55t-22.5 -55t-55.5 -23q-32 0 -54.5 23t-22.5 55z" />
    <glyph glyph-name="copyright" unicode="&#xa9;" horiz-adv-x="932" 
d="M58 361q0 155 112.5 264t260.5 109t260.5 -109t112.5 -264t-109 -264.5t-264 -109.5t-264 109.5t-109 264.5zM117 361q0 -132 94.5 -225.5t220.5 -93.5q128 0 220.5 95.5t92.5 223.5t-92.5 223t-220.5 95q-127 0 -221 -93.5t-94 -224.5zM598 538l-37 -53q-48 40 -109 40
q-69 0 -116 -48.5t-47 -121.5q0 -69 46 -117t115 -48t110 41l37 -54q-62 -50 -146 -53q-102 0 -169.5 65t-67.5 164q0 102 67 170.5t165 68.5q87 0 152 -54z" />
    <glyph glyph-name="ordfeminine" unicode="&#xaa;" horiz-adv-x="483" 
d="M48 330h361v-77h-361v77zM324 659v61h85v-342h-86v65q-10 -32 -44.5 -52.5t-76.5 -20.5q-69 0 -116.5 50t-47.5 125q0 85 50.5 135.5t114.5 50.5q74 0 112 -56zM125 550q0 -46 28.5 -75.5t71.5 -29.5q42 0 71 29.5t29 76.5q0 46 -29 76t-71 30q-41 0 -70.5 -30t-29.5 -77
z" />
    <glyph glyph-name="guillemotleft" unicode="&#xab;" horiz-adv-x="655" 
d="M29 246l272 244l74 -79l-189 -163l189 -168l-74 -81zM280 246l271 244l75 -79l-189 -163l189 -168l-75 -81z" />
    <glyph glyph-name="logicalnot" unicode="&#xac;" horiz-adv-x="653" 
d="M38 360v108h528v-252h-84v144h-444z" />
    <glyph glyph-name="registered" unicode="&#xae;" horiz-adv-x="932" 
d="M58 361q0 155 112.5 264t260.5 109t260.5 -109t112.5 -264t-109 -264.5t-264 -109.5t-264 109.5t-109 264.5zM117 361q0 -132 94.5 -225.5t220.5 -93.5q128 0 220.5 95.5t92.5 223.5t-92.5 223t-220.5 95q-127 0 -221 -93.5t-94 -224.5zM306 140v449h121q149 0 149 -129
q0 -48 -30.5 -83.5t-78.5 -35.5l134 -201h-85l-138 214v-214h-72zM378 381h37q41 0 64 19.5t23 53.5q0 76 -83 76h-41v-149z" />
    <glyph glyph-name="macron" unicode="&#xaf;" horiz-adv-x="359" 
d="M0 561v85h359v-85h-359z" />
    <glyph glyph-name="plusminus" unicode="&#xb1;" horiz-adv-x="594" 
d="M506 87v-68h-462v68h462zM309 453v-122h197v-68h-197v-122h-68v122h-197v68h197v122h68z" />
    <glyph glyph-name="acute" unicode="&#xb4;" horiz-adv-x="278" 
d="M64 585l102 172l113 -63l-129 -158z" />
    <glyph glyph-name="mu" unicode="&#xb5;" horiz-adv-x="623" 
d="M166 449v-296q0 -69 13 -93.5t51 -25.5q58 0 94.5 80.5t38.5 204.5v130h92v-328q0 -87 38 -87q43 0 43 82v14h21q0 -5 1 -9q0 -127 -90 -130q-99 0 -102 172q-23 -88 -61 -130t-97 -42q-89 0 -113 103q1 -3 0 -12.5t-1 -15.5q0 -33 16 -88.5t32 -98.5t16 -46
q0 -39 -42 -42q-22 0 -32 15t-11 55q0 1 1 27.5t2 62t1 57.5q0 20 -1.5 100.5t-1.5 95.5v245h92z" />
    <glyph glyph-name="paragraph" unicode="&#xb6;" horiz-adv-x="655" 
d="M243 720h325v-65h-326q-57 0 -98.5 -41.5t-41.5 -99.5q0 -59 41.5 -100.5t98.5 -41.5h65v233h69v-605h-69v307h-65q-84 0 -144 60.5t-60 145.5q0 86 60 146.5t145 60.5zM439 0v605h69v-605h-69z" />
    <glyph glyph-name="periodcentered" unicode="&#xb7;" 
d="M223 244q0 36 24.5 61t59.5 25q36 0 61.5 -25t25.5 -61q0 -35 -25 -60t-61 -25q-35 0 -60 25t-25 60z" />
    <glyph glyph-name="cedilla" unicode="&#xb8;" horiz-adv-x="196" 
d="M28 -184l69 143l98 -22l-86 -140z" />
    <glyph glyph-name="ordmasculine" unicode="&#xba;" horiz-adv-x="483" 
d="M44 253v77h360v-77h-360zM38 551q0 80 54 132t129 52q81 0 134.5 -53.5t53.5 -128.5q0 -79 -53.5 -132.5t-132.5 -53.5t-132 53.5t-53 130.5zM123 551q0 -45 29 -75.5t72 -30.5q42 0 71 30.5t29 76.5q0 44 -29 74.5t-72 30.5q-42 0 -71 -30.5t-29 -75.5z" />
    <glyph glyph-name="guillemotright" unicode="&#xbb;" horiz-adv-x="655" 
d="M29 80l190 165l-190 169l75 78l271 -249l-273 -243zM280 80l189 165l-189 169l74 78l272 -249l-274 -243z" />
    <glyph glyph-name="questiondown" unicode="&#xbf;" horiz-adv-x="523" 
d="M212 651q0 35 25.5 60t60.5 25t60 -25t25 -60q0 -36 -25 -61.5t-60 -25.5t-60.5 25.5t-25.5 61.5zM522 181q-23 -96 -87 -147t-160 -51q-110 0 -180.5 65t-70.5 167q0 126 117 186l48 25q15 8 23.5 13.5t11.5 13t3.5 10.5t0.5 14v35h140v-66q0 -41 -9 -57.5t-40 -28.5
q-85 -33 -121 -63t-36 -86q0 -50 31 -82.5t79 -32.5t77.5 28t36.5 79z" />
    <glyph glyph-name="Agrave" unicode="&#xc0;" horiz-adv-x="631" 
d="M-29 0l273 721h143l274 -721h-156l-54 156h-270l-55 -156h-155zM296 490l-78 -223h195l-78 223q-18 81 -19 118q0 -19 -2 -36t-3.5 -24.5t-7 -29t-7.5 -28.5zM176 956l114 64l101 -171l-87 -50z" />
    <glyph glyph-name="Aacute" unicode="&#xc1;" horiz-adv-x="631" 
d="M-29 0l273 721h143l274 -721h-156l-54 156h-270l-55 -156h-155zM296 490l-78 -223h195l-78 223q-18 81 -19 118q0 -19 -2 -36t-3.5 -24.5t-7 -29t-7.5 -28.5zM240 850l102 172l113 -63l-129 -158z" />
    <glyph glyph-name="Acircumflex" unicode="&#xc2;" horiz-adv-x="631" 
d="M-29 0l273 721h143l274 -721h-156l-54 156h-270l-55 -156h-155zM296 490l-78 -223h195l-78 223q-18 81 -19 118q0 -19 -2 -36t-3.5 -24.5t-7 -29t-7.5 -28.5zM130 877l186 122l185 -122l-43 -78l-142 75l-144 -73z" />
    <glyph glyph-name="Atilde" unicode="&#xc3;" horiz-adv-x="631" 
d="M-29 0l273 721h143l274 -721h-156l-54 156h-270l-55 -156h-155zM296 490l-78 -223h195l-78 223q-18 81 -19 118q0 -19 -2 -36t-3.5 -24.5t-7 -29t-7.5 -28.5zM153 804v97q43 15 76 15q18 0 51 -7l44 -9q52 -10 71 -10q41 0 82 21v-96q-41 -15 -77 -15q-18 0 -58 6t-74 12
t-36 6q-40 0 -79 -20z" />
    <glyph glyph-name="Adieresis" unicode="&#xc4;" horiz-adv-x="631" 
d="M121 819q0 30 23 51t55 21q31 0 54 -21.5t23 -50.5q0 -28 -23 -48t-55 -20q-31 0 -54 20.5t-23 47.5zM355 819q0 29 22.5 50.5t53.5 21.5q33 0 55.5 -20.5t22.5 -49.5t-22.5 -49.5t-54.5 -20.5t-54.5 20t-22.5 48zM-29 0l273 721h143l274 -721h-156l-54 156h-270
l-55 -156h-155zM296 490l-78 -223h195l-78 223q-18 81 -19 118q0 -19 -2 -36t-3.5 -24.5t-7 -29t-7.5 -28.5z" />
    <glyph glyph-name="Aring" unicode="&#xc5;" horiz-adv-x="631" 
d="M-29 0l277 719h23q-34 19 -47.5 37t-13.5 44q0 42 30.5 71.5t74.5 29.5q41 0 71.5 -28t32.5 -69v-5q0 -43 -56 -80h21l275 -719h-148l-59 159h-273l-59 -159h-149zM215 269h201l-81 221q-18 55 -19 118q-1 -63 -21 -118zM272 804q0 -17 12.5 -30t30.5 -13q17 0 29.5 13
t12.5 30q0 18 -12 31t-29 13q-18 0 -31 -13t-13 -31z" />
    <glyph glyph-name="AE" unicode="&#xc6;" horiz-adv-x="901" 
d="M-29 0l420 721h473v-129h-258v-152h222v-119h-222v-192h266v-129h-413v173h-227l-97 -173h-164zM459 597l-169 -313h169v313z" />
    <glyph glyph-name="Ccedilla" unicode="&#xc7;" horiz-adv-x="644" 
d="M637 652l-75 -109q-45 28 -77.5 40.5t-73.5 12.5q-100 0 -167 -68t-67 -169q0 -102 66.5 -171t166.5 -69q77 0 152 57l73 -110q-60 -45 -116.5 -63.5t-127.5 -18.5q-158 0 -261 105.5t-103 267.5q0 161 106 269t264 108q66 0 119.5 -17.5t120.5 -64.5zM250 -172l69 143
l97 -22l-85 -140z" />
    <glyph glyph-name="Egrave" unicode="&#xc8;" horiz-adv-x="489" 
d="M46 0v721h405v-119h-257v-162h221v-119h-221v-202h265v-119h-413zM105 956l114 64l101 -171l-87 -50z" />
    <glyph glyph-name="Eacute" unicode="&#xc9;" horiz-adv-x="489" 
d="M46 0v721h405v-119h-257v-162h221v-119h-221v-202h265v-119h-413zM169 850l102 172l113 -63l-129 -158z" />
    <glyph glyph-name="Ecircumflex" unicode="&#xca;" horiz-adv-x="489" 
d="M46 0v721h405v-119h-257v-162h221v-119h-221v-202h265v-119h-413zM59 877l186 122l185 -122l-43 -78l-142 75l-144 -73z" />
    <glyph glyph-name="Edieresis" unicode="&#xcb;" horiz-adv-x="489" 
d="M46 0v721h405v-119h-257v-162h221v-119h-221v-202h265v-119h-413zM51 880q0 32 23 54.5t55 22.5t54.5 -23t22.5 -55t-22.5 -55t-54.5 -23t-55 23t-23 56zM282 879q0 32 22.5 55t53.5 23q33 0 56 -23t23 -55t-22.5 -55t-55.5 -23q-32 0 -54.5 23t-22.5 55z" />
    <glyph glyph-name="Igrave" unicode="&#xcc;" horiz-adv-x="240" 
d="M46 0v721h148v-721h-148zM-19 956l114 64l101 -171l-87 -50z" />
    <glyph glyph-name="Iacute" unicode="&#xcd;" horiz-adv-x="240" 
d="M46 0v721h148v-721h-148zM45 850l102 172l113 -63l-129 -158z" />
    <glyph glyph-name="Icircumflex" unicode="&#xce;" horiz-adv-x="240" 
d="M46 0v721h148v-721h-148zM-65 877l186 122l185 -122l-43 -78l-142 75l-144 -73z" />
    <glyph glyph-name="Idieresis" unicode="&#xcf;" horiz-adv-x="240" 
d="M46 0v721h148v-721h-148zM-73 880q0 32 23 54.5t55 22.5t54.5 -23t22.5 -55t-22.5 -55t-54.5 -23t-55 23t-23 56zM158 879q0 32 22.5 55t53.5 23q33 0 56 -23t23 -55t-22.5 -55t-55.5 -23q-32 0 -54.5 23t-22.5 55z" />
    <glyph glyph-name="Ntilde" unicode="&#xd1;" horiz-adv-x="741" 
d="M46 0v721h141l325 -430q24 -33 54 -116q-19 112 -19 131v415h147v-721h-137l-332 436q-22 29 -54 112l11 -56q4 -23 7 -39.5l4 -22t1 -6.5v-424h-148zM208 804v97q43 15 76 15q18 0 51 -7l44 -9q52 -10 71 -10q41 0 82 21v-96q-41 -15 -77 -15q-18 0 -58 6t-74 12t-36 6
q-40 0 -79 -20z" />
    <glyph glyph-name="Ograve" unicode="&#xd2;" horiz-adv-x="802" 
d="M27 359q0 161 107 269t267 108t267 -107.5t107 -268.5t-107 -269t-267 -108t-267 107.5t-107 268.5zM401 598q-94 -1 -160 -70.5t-66 -168.5q0 -98 66 -167.5t160 -69.5t160 69.5t66 168.5q0 98 -66 168t-160 70zM262 956l114 64l101 -171l-87 -50z" />
    <glyph glyph-name="Oacute" unicode="&#xd3;" horiz-adv-x="802" 
d="M27 359q0 161 107 269t267 108t267 -107.5t107 -268.5t-107 -269t-267 -108t-267 107.5t-107 268.5zM401 598q-94 -1 -160 -70.5t-66 -168.5q0 -98 66 -167.5t160 -69.5t160 69.5t66 168.5q0 98 -66 168t-160 70zM326 850l102 172l113 -63l-129 -158z" />
    <glyph glyph-name="Ocircumflex" unicode="&#xd4;" horiz-adv-x="802" 
d="M27 359q0 161 107 269t267 108t267 -107.5t107 -268.5t-107 -269t-267 -108t-267 107.5t-107 268.5zM401 598q-94 -1 -160 -70.5t-66 -168.5q0 -98 66 -167.5t160 -69.5t160 69.5t66 168.5q0 98 -66 168t-160 70zM215 877l186 122l185 -122l-43 -78l-142 75l-144 -73z
" />
    <glyph glyph-name="Otilde" unicode="&#xd5;" horiz-adv-x="802" 
d="M27 359q0 161 107 269t267 108t267 -107.5t107 -268.5t-107 -269t-267 -108t-267 107.5t-107 268.5zM401 598q-94 -1 -160 -70.5t-66 -168.5q0 -98 66 -167.5t160 -69.5t160 69.5t66 168.5q0 98 -66 168t-160 70zM239 804v97q43 15 76 15q18 0 51 -7l44 -9q52 -10 71 -10
q41 0 82 21v-96q-41 -15 -77 -15q-18 0 -58 6t-74 12t-36 6q-40 0 -79 -20z" />
    <glyph glyph-name="Odieresis" unicode="&#xd6;" horiz-adv-x="802" 
d="M95 769q0 30 23.5 51t56.5 21t56.5 -21t23.5 -51t-23.5 -51t-57.5 -21q-32 0 -55.5 21.5t-23.5 50.5zM543 769q0 30 23 51t57 21q35 0 59.5 -21t24.5 -51q0 -29 -24.5 -50.5t-58.5 -21.5t-57.5 21t-23.5 51zM27 359q0 161 107 269t267 108t267 -107.5t107 -268.5
t-107 -269t-267 -108t-267 107.5t-107 268.5zM401 598q-94 -1 -160 -70.5t-66 -168.5q0 -98 66 -167.5t160 -69.5t160 69.5t66 168.5q0 98 -66 168t-160 70z" />
    <glyph glyph-name="Oslash" unicode="&#xd8;" horiz-adv-x="810" 
d="M654 642l90 89l39 -40l-89 -88q81 -117 81 -244q0 -161 -107.5 -269t-267.5 -108q-69 0 -123 18.5t-118 70.5l-89 -89l-43 37l91 90q-47 60 -69 119t-22 132q0 162 107 270t267 108q72 0 129 -19.5t124 -76.5zM587 497l-323 -322q35 -32 65.5 -42.5t70.5 -11.5
q95 0 161 69.5t66 169.5q0 74 -40 137zM221 215l329 327q-76 52 -148 52q-92 0 -157.5 -68t-65.5 -165q0 -74 42 -146z" />
    <glyph glyph-name="Ugrave" unicode="&#xd9;" horiz-adv-x="652" 
d="M606 721v-436q0 -70 -8 -112q-19 -88 -92 -139t-178 -51q-140 0 -217 82q-37 39 -51 86.5t-14 133.5v436h148v-423q0 -50 3 -75q6 -47 41 -74.5t88 -27.5q67 0 103 42q18 21 23.5 46.5t5.5 88.5v423h148zM187 956l114 64l101 -171l-87 -50z" />
    <glyph glyph-name="Uacute" unicode="&#xda;" horiz-adv-x="652" 
d="M606 721v-436q0 -70 -8 -112q-19 -88 -92 -139t-178 -51q-140 0 -217 82q-37 39 -51 86.5t-14 133.5v436h148v-423q0 -50 3 -75q6 -47 41 -74.5t88 -27.5q67 0 103 42q18 21 23.5 46.5t5.5 88.5v423h148zM251 850l102 172l113 -63l-129 -158z" />
    <glyph glyph-name="Ucircumflex" unicode="&#xdb;" horiz-adv-x="652" 
d="M606 721v-436q0 -70 -8 -112q-19 -88 -92 -139t-178 -51q-140 0 -217 82q-37 39 -51 86.5t-14 133.5v436h148v-423q0 -50 3 -75q6 -47 41 -74.5t88 -27.5q67 0 103 42q18 21 23.5 46.5t5.5 88.5v423h148zM140 877l186 122l185 -122l-43 -78l-142 75l-144 -73z" />
    <glyph glyph-name="Udieresis" unicode="&#xdc;" horiz-adv-x="652" 
d="M133 819q0 29 23.5 50.5t55.5 21.5q31 0 53.5 -21.5t22.5 -50.5q0 -28 -23 -48t-54 -20q-32 0 -55 20t-23 48zM364 819q0 29 23 50.5t54 21.5q32 0 55 -21.5t23 -50.5q0 -28 -23 -48t-54 -20t-54 20t-24 48zM606 721v-436q0 -70 -8 -112q-19 -88 -92 -139t-178 -51
q-140 0 -217 82q-37 39 -51 86.5t-14 133.5v436h148v-423q0 -50 3 -75q6 -47 41 -74.5t88 -27.5q67 0 103 42q18 21 23.5 46.5t5.5 88.5v423h148z" />
    <glyph glyph-name="germandbls" unicode="&#xdf;" horiz-adv-x="571" 
d="M49 0v508q0 111 62 168.5t166 57.5q94 0 156.5 -55.5t62.5 -139.5q0 -112 -95 -149q69 -14 108.5 -63.5t39.5 -122.5q0 -98 -62.5 -160t-162.5 -62q-49 0 -99 21l21 118q25 -13 52 -13q46 0 73.5 28t27.5 75q0 49 -30.5 78.5t-80.5 29.5h-50v118h31q45 0 69.5 24t24.5 68
q0 38 -23.5 63t-59.5 25q-43 0 -66.5 -28t-23.5 -78v-511h-141z" />
    <glyph glyph-name="agrave" unicode="&#xe0;" horiz-adv-x="590" 
d="M401 424v67h144v-491h-144v63q-46 -77 -148 -77q-98 0 -162 73t-64 185q0 110 64.5 184.5t160.5 74.5q99 0 149 -79zM286 383q-52 0 -86 -40t-34 -99q0 -61 34.5 -100t88.5 -39q53 0 87.5 39t34.5 100q0 59 -36 99t-89 40zM156 691l114 64l101 -171l-87 -50z" />
    <glyph glyph-name="aacute" unicode="&#xe1;" horiz-adv-x="590" 
d="M401 424v67h144v-491h-144v63q-46 -77 -148 -77q-98 0 -162 73t-64 185q0 110 64.5 184.5t160.5 74.5q99 0 149 -79zM286 383q-52 0 -86 -40t-34 -99q0 -61 34.5 -100t88.5 -39q53 0 87.5 39t34.5 100q0 59 -36 99t-89 40zM220 585l102 172l113 -63l-129 -158z" />
    <glyph glyph-name="acircumflex" unicode="&#xe2;" horiz-adv-x="590" 
d="M401 424v67h144v-491h-144v63q-46 -77 -148 -77q-98 0 -162 73t-64 185q0 110 64.5 184.5t160.5 74.5q99 0 149 -79zM286 383q-52 0 -86 -40t-34 -99q0 -61 34.5 -100t88.5 -39q53 0 87.5 39t34.5 100q0 59 -36 99t-89 40zM109 612l186 122l185 -122l-43 -78l-142 75
l-144 -73z" />
    <glyph glyph-name="atilde" unicode="&#xe3;" horiz-adv-x="590" 
d="M401 424v67h144v-491h-144v63q-46 -77 -148 -77q-98 0 -162 73t-64 185q0 110 64.5 184.5t160.5 74.5q99 0 149 -79zM286 383q-52 0 -86 -40t-34 -99q0 -61 34.5 -100t88.5 -39q53 0 87.5 39t34.5 100q0 59 -36 99t-89 40zM133 539v97q43 15 76 15q18 0 51 -7l44 -9
q52 -10 71 -10q41 0 82 21v-96q-41 -15 -77 -15q-18 0 -58 6t-74 12t-36 6q-40 0 -79 -20z" />
    <glyph glyph-name="adieresis" unicode="&#xe4;" horiz-adv-x="590" 
d="M401 427v64h144v-491h-144v63q-46 -77 -148 -77q-99 0 -162.5 73t-63.5 187q0 111 64.5 185.5t160.5 74.5q98 0 149 -79zM107 627q0 32 23.5 55.5t55.5 23.5q31 0 54 -23t23 -55t-23 -55.5t-55 -23.5t-55 23t-23 55zM341 628q0 32 22.5 55t54.5 23q33 0 55.5 -23
t22.5 -56q0 -32 -22.5 -55t-55.5 -23q-32 0 -54.5 23.5t-22.5 55.5zM166 240q2 -60 36 -97.5t87 -37.5t87.5 39.5t34.5 101.5q0 60 -35.5 100t-89.5 40q-52 0 -86 -40t-34 -100v-6z" />
    <glyph glyph-name="aring" unicode="&#xe5;" horiz-adv-x="589" 
d="M401 427v63h142v-490h-141v62q-45 -78 -150 -78q-98 0 -161.5 73.5t-63.5 187.5q0 112 64.5 186.5t160.5 74.5q101 0 149 -79zM178 627q0 40 31 67.5t75 27.5q43 0 74 -28t31 -67q0 -40 -31 -67.5t-75 -27.5q-43 0 -74 27.5t-31 67.5zM166 245q0 -62 34 -102t89 -40
q53 0 87.5 40t34.5 102q0 61 -35.5 101t-89.5 40q-52 0 -86 -40t-34 -101zM284 669q-18 0 -30.5 -12t-12.5 -30t12.5 -30.5t29.5 -12.5q18 0 30.5 12.5t12.5 30.5t-12 30t-30 12z" />
    <glyph glyph-name="ae" unicode="&#xe6;" horiz-adv-x="882" 
d="M364 295q-21 106 -141 106q-52 0 -111 -24l-43 93q73 35 158 35q156 0 202 -101q19 47 65.5 73.5t110.5 26.5q112 0 182 -72.5t70 -187.5q0 -6 -2 -44h-365q20 -104 116 -104q82 0 114 75l125 -37q-72 -149 -242 -149q-123 0 -182 86q-26 -39 -79 -62.5t-114 -23.5
q-89 0 -145 48.5t-56 124.5t60.5 123.5t156.5 47.5q72 0 120 -34zM154 161v-4q1 -31 27.5 -49.5t66.5 -18.5q50 0 82 26.5t32 66.5q0 27 -26 42t-73 15q-50 0 -79.5 -21t-29.5 -57zM608 405q-52 0 -82.5 -29t-34.5 -83h227q-6 112 -110 112z" />
    <glyph glyph-name="ccedilla" unicode="&#xe7;" horiz-adv-x="445" 
d="M442 467l-45 -112q-50 23 -94 23q-56 0 -94 -38t-38 -96q0 -59 37.5 -96.5t96.5 -37.5q45 0 91 28l48 -100q-77 -52 -165 -52q-109 0 -180.5 72.5t-71.5 183.5q0 114 74.5 188t189.5 74q74 0 151 -37zM165 -169l70 143l97 -22l-86 -140z" />
    <glyph glyph-name="egrave" unicode="&#xe8;" horiz-adv-x="563" 
d="M536 200h-368q8 -51 40.5 -80.5t79.5 -29.5q34 0 71.5 21.5t59.5 54.5l102 -70q-49 -60 -102.5 -85.5t-129.5 -25.5q-117 0 -189.5 70.5t-72.5 183.5q0 114 73.5 190t184.5 76q112 0 182 -74.5t70 -193.5q0 -4 -0.5 -16.5t-0.5 -20.5zM284 401q-46 0 -76 -28.5t-40 -79.5
h227q-6 51 -35 79.5t-76 28.5zM142 691l114 64l101 -171l-87 -50z" />
    <glyph glyph-name="eacute" unicode="&#xe9;" horiz-adv-x="563" 
d="M536 200h-368q8 -51 40.5 -80.5t79.5 -29.5q34 0 71.5 21.5t59.5 54.5l102 -70q-49 -60 -102.5 -85.5t-129.5 -25.5q-117 0 -189.5 70.5t-72.5 183.5q0 114 73.5 190t184.5 76q112 0 182 -74.5t70 -193.5q0 -4 -0.5 -16.5t-0.5 -20.5zM284 401q-46 0 -76 -28.5t-40 -79.5
h227q-6 51 -35 79.5t-76 28.5zM206 585l102 172l113 -63l-129 -158z" />
    <glyph glyph-name="ecircumflex" unicode="&#xea;" horiz-adv-x="563" 
d="M536 200h-368q8 -51 40.5 -80.5t79.5 -29.5q34 0 71.5 21.5t59.5 54.5l102 -70q-49 -60 -102.5 -85.5t-129.5 -25.5q-117 0 -189.5 70.5t-72.5 183.5q0 114 73.5 190t184.5 76q112 0 182 -74.5t70 -193.5q0 -4 -0.5 -16.5t-0.5 -20.5zM284 401q-46 0 -76 -28.5t-40 -79.5
h227q-6 51 -35 79.5t-76 28.5zM96 612l186 122l185 -122l-43 -78l-142 75l-144 -73z" />
    <glyph glyph-name="edieresis" unicode="&#xeb;" horiz-adv-x="563" 
d="M536 200h-368q8 -51 40.5 -80.5t79.5 -29.5q34 0 71.5 21.5t59.5 54.5l102 -70q-49 -60 -102.5 -85.5t-129.5 -25.5q-117 0 -189.5 70.5t-72.5 183.5q0 114 73.5 190t184.5 76q112 0 182 -74.5t70 -193.5q0 -4 -0.5 -16.5t-0.5 -20.5zM284 401q-46 0 -76 -28.5t-40 -79.5
h227q-6 51 -35 79.5t-76 28.5zM88 615q0 32 23 54.5t55 22.5t54.5 -23t22.5 -55t-22.5 -55t-54.5 -23t-55 23t-23 56zM319 614q0 32 22.5 55t53.5 23q33 0 56 -23t23 -55t-22.5 -55t-55.5 -23q-32 0 -54.5 23t-22.5 55z" />
    <glyph glyph-name="igrave" unicode="&#xec;" horiz-adv-x="208" 
d="M34 0v491h143v-491h-143zM-35 691l114 64l101 -171l-87 -50z" />
    <glyph glyph-name="iacute" unicode="&#xed;" horiz-adv-x="208" 
d="M34 0v491h143v-491h-143zM29 585l102 172l113 -63l-129 -158z" />
    <glyph glyph-name="icircumflex" unicode="&#xee;" horiz-adv-x="208" 
d="M34 0v491h143v-491h-143zM-81 612l186 122l185 -122l-43 -78l-142 75l-144 -73z" />
    <glyph glyph-name="idieresis" unicode="&#xef;" horiz-adv-x="208" 
d="M34 0v491h143v-491h-143zM-89 615q0 32 23 54.5t55 22.5t54.5 -23t22.5 -55t-22.5 -55t-54.5 -23t-55 23t-23 56zM142 614q0 32 22.5 55t53.5 23q33 0 56 -23t23 -55t-22.5 -55t-55.5 -23q-32 0 -54.5 23t-22.5 55z" />
    <glyph glyph-name="ntilde" unicode="&#xf1;" horiz-adv-x="551" 
d="M46 0v491h144v-72q21 41 61 63t92 22q82 0 127 -53q20 -24 27.5 -54t7.5 -86v-311h-144v275q0 109 -80 109q-43 0 -67 -32t-24 -90v-262h-144zM113 539v97q43 15 76 15q18 0 51 -7l44 -9q52 -10 71 -10q41 0 82 21v-96q-41 -15 -77 -15q-18 0 -58 6t-74 12t-36 6
q-40 0 -79 -20z" />
    <glyph glyph-name="ograve" unicode="&#xf2;" horiz-adv-x="585" 
d="M27 244q0 113 75 186.5t191 73.5q115 0 190 -73.5t75 -186.5t-75 -186.5t-190 -73.5q-116 0 -191 73.5t-75 186.5zM293 383q-56 0 -93 -39.5t-37 -99.5t37 -99t93 -39q55 0 92 39t37 99t-37 99.5t-92 39.5zM153 691l114 64l101 -171l-87 -50z" />
    <glyph glyph-name="oacute" unicode="&#xf3;" horiz-adv-x="585" 
d="M27 244q0 113 75 186.5t191 73.5q115 0 190 -73.5t75 -186.5t-75 -186.5t-190 -73.5q-116 0 -191 73.5t-75 186.5zM293 383q-56 0 -93 -39.5t-37 -99.5t37 -99t93 -39q55 0 92 39t37 99t-37 99.5t-92 39.5zM217 585l102 172l113 -63l-129 -158z" />
    <glyph glyph-name="ocircumflex" unicode="&#xf4;" horiz-adv-x="585" 
d="M27 244q0 113 75 186.5t191 73.5q115 0 190 -73.5t75 -186.5t-75 -186.5t-190 -73.5q-116 0 -191 73.5t-75 186.5zM293 383q-56 0 -93 -39.5t-37 -99.5t37 -99t93 -39q55 0 92 39t37 99t-37 99.5t-92 39.5zM107 612l186 122l185 -122l-43 -78l-142 75l-144 -73z" />
    <glyph glyph-name="otilde" unicode="&#xf5;" horiz-adv-x="585" 
d="M27 244q0 113 75 186.5t191 73.5q115 0 190 -73.5t75 -186.5t-75 -186.5t-190 -73.5q-116 0 -191 73.5t-75 186.5zM293 383q-56 0 -93 -39.5t-37 -99.5t37 -99t93 -39q55 0 92 39t37 99t-37 99.5t-92 39.5zM130 539v97q43 15 76 15q18 0 51 -7l44 -9q52 -10 71 -10
q41 0 82 21v-96q-41 -15 -77 -15q-18 0 -58 6t-74 12t-36 6q-40 0 -79 -20z" />
    <glyph glyph-name="odieresis" unicode="&#xf6;" horiz-adv-x="585" 
d="M27 244q0 114 75 187.5t191 73.5q115 0 190 -73.5t75 -187.5q0 -113 -75 -186.5t-190 -73.5q-116 0 -191 73.5t-75 186.5zM104 627q0 32 23 55.5t56 23.5q31 0 53.5 -23.5t22.5 -56.5q0 -32 -23 -54.5t-55 -22.5t-54.5 23t-22.5 55zM326 626q0 33 22.5 56.5t53.5 23.5
q32 0 55.5 -23.5t23.5 -55.5t-22.5 -55t-54.5 -23t-55 22.5t-23 54.5zM163 244q0 -60 37 -99t93 -39q55 0 92 39t37 99t-37 99.5t-92 39.5q-56 0 -93 -39.5t-37 -99.5z" />
    <glyph glyph-name="divide" unicode="&#xf7;" horiz-adv-x="594" 
d="M234 141q19 17 41 17q24 0 40 -16t16 -41q0 -22 -16.5 -39.5t-39.5 -17.5t-40 16t-17 41q0 24 16 40zM506 270v-68h-463v68h463zM234 410q20 17 41 17q23 0 39.5 -17t16.5 -40q0 -22 -16.5 -39.5t-39.5 -17.5q-22 0 -39.5 16t-17.5 41q0 24 16 40z" />
    <glyph glyph-name="oslash" unicode="&#xf8;" horiz-adv-x="590" 
d="M27 15l62 62q-61 63 -61 167q0 115 74.5 189t191.5 74q48 0 87.5 -12.5t87.5 -48.5l63 57l31 -37l-58 -55q30 -42 42 -78.5t12 -88.5q0 -113 -75 -187t-190 -74q-47 0 -85 12t-86 45l-59 -58zM408 317l-192 -185q36 -27 78 -27q55 0 92 39.5t37 98.5q0 37 -15 74z
M184 169l191 186q-35 27 -78 27q-60 0 -94.5 -37.5t-34.5 -103.5q0 -36 16 -72z" />
    <glyph glyph-name="ugrave" unicode="&#xf9;" horiz-adv-x="554" 
d="M508 491v-282q0 -104 -59.5 -164t-171.5 -60q-97 0 -165 53q-36 29 -51 67.5t-15 103.5v282h144v-268q0 -104 87 -104t87 104v268h144zM138 691l114 64l101 -171l-87 -50z" />
    <glyph glyph-name="uacute" unicode="&#xfa;" horiz-adv-x="554" 
d="M508 491v-282q0 -104 -59.5 -164t-171.5 -60q-97 0 -165 53q-36 29 -51 67.5t-15 103.5v282h144v-268q0 -104 87 -104t87 104v268h144zM202 585l102 172l113 -63l-129 -158z" />
    <glyph glyph-name="ucircumflex" unicode="&#xfb;" horiz-adv-x="554" 
d="M508 491v-282q0 -104 -59.5 -164t-171.5 -60q-97 0 -165 53q-36 29 -51 67.5t-15 103.5v282h144v-268q0 -104 87 -104t87 104v268h144zM91 612l186 122l185 -122l-43 -78l-142 75l-144 -73z" />
    <glyph glyph-name="udieresis" unicode="&#xfc;" horiz-adv-x="554" 
d="M85 627q0 32 23 55.5t55 23.5q31 0 54 -23.5t23 -55.5t-23 -55t-55 -23t-54.5 23t-22.5 55zM314 627q0 32 22.5 55.5t54.5 23.5t54.5 -23.5t22.5 -55.5t-22.5 -55t-54.5 -23t-54.5 23t-22.5 55zM508 491v-282q0 -104 -59.5 -164t-171.5 -60q-97 0 -165 53
q-36 29 -51 67.5t-15 103.5v282h144v-268q0 -104 87 -104t87 104v268h144z" />
    <glyph glyph-name="ydieresis" unicode="&#xff;" horiz-adv-x="458" 
d="M-29 491h153l87 -236q17 -56 20 -97q14 75 22 96l86 237h155l-217 -527q-43 -100 -81 -132.5t-113 -32.5q-41 0 -80 14l23 120q23 -10 44 -10q32 0 49 20t39 82zM35 615q0 32 23 54.5t55 22.5t54.5 -23t22.5 -55t-22.5 -55t-54.5 -23t-55 23t-23 56zM266 614
q0 32 22.5 55t53.5 23q33 0 56 -23t23 -55t-22.5 -55t-55.5 -23q-32 0 -54.5 23t-22.5 55z" />
    <glyph glyph-name="dotlessi" unicode="&#x131;" horiz-adv-x="208" 
d="M34 0v491h143v-491h-143z" />
    <glyph glyph-name="OE" unicode="&#x152;" horiz-adv-x="1055" 
d="M613 652v69h404v-129h-256v-152h222v-119h-222v-192h266v-129h-414v75q-74 -89 -216 -89q-158 0 -264 107t-106 267t106 267.5t264 107.5q139 0 216 -83zM406 595q-97 0 -163 -67.5t-66 -165.5q0 -100 66 -166.5t165 -66.5q96 0 153 56.5t57 168.5q0 75 -11 112t-43 67
q-64 62 -158 62z" />
    <glyph glyph-name="oe" unicode="&#x153;" horiz-adv-x="950" 
d="M489 409q51 95 179 95q113 0 185 -73t72 -188q0 -27 -2 -48h-364q24 -100 119 -100q82 0 112 75l124 -36q-75 -150 -237 -150q-136 0 -192 95q-37 -51 -81 -72.5t-111 -21.5q-117 0 -191.5 72t-74.5 185q0 115 75.5 188.5t191.5 73.5q130 0 195 -95zM294 379
q-58 0 -94 -38t-36 -98q0 -58 36.5 -96t92.5 -38q58 0 94 38t36 98t-35.5 97t-93.5 37zM677 401q-101 0 -115 -113h222q-8 113 -107 113z" />
    <glyph glyph-name="Scaron" unicode="&#x160;" horiz-adv-x="529" 
d="M0 108l69 106q81 -105 175 -105q47 0 80 28t33 68q0 36 -23.5 54.5t-107.5 48.5q-111 41 -150.5 86t-39.5 120q0 95 68.5 157.5t173.5 62.5q132 0 214 -98l-78 -95q-62 74 -133 74q-40 0 -67 -23.5t-27 -58.5q0 -31 23 -52q20 -19 98 -47q108 -39 152 -85.5t44 -125.5
q0 -105 -72.5 -172t-185.5 -67q-152 0 -246 124zM79 921l42 77l144 -72l142 74l43 -78l-185 -123z" />
    <glyph glyph-name="scaron" unicode="&#x161;" horiz-adv-x="408" 
d="M0 76l71 84q46 -68 110 -68q28 0 45.5 14t17.5 37q0 20 -12.5 31.5t-66.5 29.5q-70 24 -102.5 57t-32.5 86q0 69 51.5 113.5t131.5 44.5q107 0 166 -74l-67 -84q-38 51 -85 51q-23 0 -40 -13t-17 -31t11.5 -26.5t69.5 -29.5q78 -26 106.5 -56.5t28.5 -87.5
q0 -76 -55 -123t-145 -47q-121 0 -186 92zM18 656l42 77l144 -72l142 74l43 -78l-185 -123z" />
    <glyph glyph-name="Ydieresis" unicode="&#x178;" horiz-adv-x="520" 
d="M-36 721h168l106 -216q16 -33 24 -94q3 57 21 95l106 215h167l-223 -403v-318h-146v318zM66 880q0 32 23 54.5t55 22.5t54.5 -23t22.5 -55t-22.5 -55t-54.5 -23t-55 23t-23 56zM297 879q0 32 22.5 55t53.5 23q33 0 56 -23t23 -55t-22.5 -55t-55.5 -23q-32 0 -54.5 23
t-22.5 55z" />
    <glyph glyph-name="Zcaron" unicode="&#x17d;" horiz-adv-x="554" 
d="M4 0v70l303 480q24 38 62 64q-57 -23 -91 -23h-241v130h493v-73l-298 -476q-19 -32 -64 -66q58 24 87 24h291v-130h-542zM91 921l42 77l144 -72l142 74l43 -78l-185 -123z" />
    <glyph glyph-name="zcaron" unicode="&#x17e;" horiz-adv-x="478" 
d="M3 0v67l225 270q23 26 65 57q-64 -22 -84 -22h-175v119h433v-63l-225 -272q-21 -28 -65 -61q49 24 90 24h188v-119h-452zM53 656l42 77l144 -72l142 74l43 -78l-185 -123z" />
    <glyph glyph-name="florin" unicode="&#x192;" horiz-adv-x="430" 
d="M-69 -182l30 103q25 -9 43 -9q75 0 84 83l41 373h-74l13 120h73l8 70q9 78 61.5 123t134.5 45q52 0 103 -17l-29 -101q-25 7 -45 7q-75 0 -82 -82l-4 -47h118l-12 -118h-120l-44 -396q-7 -76 -63 -123.5t-133 -47.5q-51 0 -103 17z" />
    <glyph glyph-name="circumflex" unicode="&#x2c6;" horiz-adv-x="373" 
d="M1 612l186 122l185 -122l-43 -78l-142 75l-144 -73z" />
    <glyph glyph-name="caron" unicode="&#x2c7;" horiz-adv-x="373" 
d="M1 656l42 77l144 -72l142 74l43 -78l-185 -123z" />
    <glyph glyph-name="breve" unicode="&#x2d8;" horiz-adv-x="362" 
d="M1 718l96 5q26 -109 86 -109q62 0 86 109l95 -5q-22 -80 -73 -127t-108 -47t-105 44t-77 130z" />
    <glyph glyph-name="dotaccent" unicode="&#x2d9;" horiz-adv-x="341" 
d="M1 779l14 111l290 -49l-13 -83z" />
    <glyph glyph-name="ring" unicode="&#x2da;" horiz-adv-x="271" 
d="M30 626q0 40 31 67.5t75 27.5q43 0 74 -28t31 -67q0 -40 -31 -67.5t-75 -27.5q-43 0 -74 27.5t-31 67.5zM136 668q-18 0 -30.5 -12t-12.5 -30t12.5 -30.5t29.5 -12.5q18 0 30.5 12.5t12.5 30.5t-12 30t-30 12z" />
    <glyph glyph-name="ogonek" unicode="&#x2db;" horiz-adv-x="215" 
d="M24 67q0 35 24.5 59.5t59.5 24.5t59.5 -24.5t24.5 -59.5q0 -36 -24.5 -60.5t-59.5 -24.5t-59.5 24.5t-24.5 60.5z" />
    <glyph glyph-name="tilde" unicode="&#x2dc;" horiz-adv-x="326" 
d="M1 539v97q43 15 76 15q18 0 51 -7l44 -9q52 -10 71 -10q41 0 82 21v-96q-41 -15 -77 -15q-18 0 -58 6t-74 12t-36 6q-40 0 -79 -20z" />
    <glyph glyph-name="hungarumlaut" unicode="&#x2dd;" horiz-adv-x="278" 
d="M64 585l102 172l113 -63l-129 -158z" />
    <glyph glyph-name="pi" unicode="&#x3c0;" horiz-adv-x="594" 
d="M414 372q-6 0 -10 1q0 -48 -2 -106t-2 -68v-40q0 -56 3.5 -82t11 -34.5t24.5 -9.5q27 0 41 28t17 90h25v-5q0 -156 -106 -156q-59 0 -81 40.5t-22 163.5q0 90 4 182q-33 0 -127 3q0 -156 -10 -239.5t-31.5 -116.5t-61.5 -33q-70 0 -70 115v19h24q2 -27 9.5 -39.5
t27.5 -12.5q28 0 43.5 24.5t24 90.5t10.5 192h-22q-74 0 -87 -53h-23q3 68 37.5 95.5t121.5 27.5q3 0 50 -1.5t107.5 -3t96.5 -1.5q63 0 66 28l23 1v-3q0 -53 -25 -75t-87 -22z" />
    <glyph glyph-name="endash" unicode="&#x2013;" 
d="M63 297v119h491v-119h-491z" />
    <glyph glyph-name="emdash" unicode="&#x2014;" horiz-adv-x="996" 
d="M30 297v119h936v-119h-936z" />
    <glyph glyph-name="quoteleft" unicode="&#x2018;" horiz-adv-x="225" 
d="M8 443l96 296l98 -18l-51 -304z" />
    <glyph glyph-name="quoteright" unicode="&#x2019;" horiz-adv-x="225" 
d="M8 442l49 304l145 -26l-97 -295z" />
    <glyph glyph-name="quotesinglbase" unicode="&#x201a;" horiz-adv-x="225" 
d="M8 -138l49 303l145 -26l-97 -295z" />
    <glyph glyph-name="quotedblleft" unicode="&#x201c;" horiz-adv-x="418" 
d="M8 443l96 296l98 -18l-51 -304zM202 443l96 296l99 -18l-51 -304z" />
    <glyph glyph-name="quotedblright" unicode="&#x201d;" horiz-adv-x="418" 
d="M8 442l49 304l145 -25l-97 -295zM202 442l50 304l145 -25l-98 -295z" />
    <glyph glyph-name="quotedblbase" unicode="&#x201e;" horiz-adv-x="418" 
d="M8 -138l49 303l145 -26l-97 -295zM202 -138l50 303l145 -26l-98 -295z" />
    <glyph glyph-name="dagger" unicode="&#x2020;" horiz-adv-x="621" 
d="M22 362v131h216v245h145v-245h216v-131h-216v-559h-145v559h-216z" />
    <glyph glyph-name="daggerdbl" unicode="&#x2021;" horiz-adv-x="640" 
d="M31 61v128h215v171h-214v131h213v241h150v-241h215v-132h-216v-171h214v-130h-214v-245h-149v248h-214z" />
    <glyph glyph-name="bullet" unicode="&#x2022;" 
d="M223 244q0 36 24.5 61t59.5 25q36 0 61.5 -25t25.5 -61q0 -35 -25 -60t-61 -25q-35 0 -60 25t-25 60z" />
    <glyph glyph-name="ellipsis" unicode="&#x2026;" horiz-adv-x="996" 
d="M96 72q0 35 25 59.5t59 24.5t59 -25t25 -59t-25 -59t-59 -25t-59 24.5t-25 59.5zM429 72q0 36 25.5 60t58.5 24t58.5 -25t25.5 -59t-25.5 -59t-58.5 -25t-58.5 24t-25.5 60zM749 72q0 35 24.5 59.5t59.5 24.5t59.5 -25t24.5 -59t-24.5 -59t-59.5 -25t-59.5 24.5
t-24.5 59.5z" />
    <glyph glyph-name="perthousand" unicode="&#x2030;" horiz-adv-x="1002" 
d="M30 538q0 82 41.5 140t100.5 58t100.5 -57.5t41.5 -139.5t-41.5 -139t-100.5 -57t-100.5 57t-41.5 138zM149 -14l295 747l81 -30l-299 -746zM370 182q0 82 41 139.5t99 57.5q59 0 100.5 -57.5t41.5 -139.5q0 -81 -41.5 -138.5t-100.5 -57.5q-58 0 -99 57.5t-41 138.5z
M689 182q0 82 41 139.5t100 57.5t100.5 -57.5t41.5 -139.5q0 -81 -42 -138.5t-101 -57.5q-58 0 -99 57.5t-41 138.5zM510 274q-25 0 -42.5 -27t-17.5 -65t17.5 -64.5t42.5 -26.5q26 0 44 26.5t18 64.5t-18 65t-44 27zM172 629q-26 0 -44 -26.5t-18 -63.5t18.5 -63.5
t43.5 -26.5t43.5 26.5t18.5 63.5t-18.5 63.5t-43.5 26.5zM830 274q-25 0 -42.5 -27t-17.5 -65t17.5 -64.5t42.5 -26.5q26 0 44 27t18 64q0 38 -18 65t-44 27z" />
    <glyph glyph-name="guilsinglleft" unicode="&#x2039;" horiz-adv-x="408" 
d="M30 246l272 244l75 -79l-190 -163l189 -168l-73 -81z" />
    <glyph glyph-name="guilsinglright" unicode="&#x203a;" horiz-adv-x="406" 
d="M30 80l191 165l-191 169l75 78l271 -249l-272 -243z" />
    <glyph glyph-name="fraction" unicode="&#x2044;" horiz-adv-x="195" 
d="M-103 -10l330 743l69 -30l-328 -744z" />
    <glyph glyph-name="Euro" unicode="&#x20ac;" 
d="M617 73q-4 -4 -11 -9.5t-30.5 -21t-49 -27t-64.5 -21t-78 -9.5q-118 0 -194.5 69.5t-97.5 192.5h-73v69h64q-1 10 -1 40q0 28 1 44h-64v69h73q23 124 100 195t193 71q63 0 136 -33t96 -58l-69 -97q-2 3 -6.5 7.5t-19 16.5t-30.5 21t-41 16.5t-50 7.5q-73 0 -116 -45
t-48 -102h250v-69h-261q0 -1 -1 -19.5t-1 -23.5q0 -6 1 -22.5t1 -18.5h261v-69h-249q6 -57 45 -100t112 -43q43 0 82 16t57 32l18 17z" />
    <glyph glyph-name="trademark" unicode="&#x2122;" horiz-adv-x="773" 
d="M38 662v58h219v-58h-77v-302h-66v302h-76zM245 360l64 365h51l83 -203q17 -40 18 -75q6 45 18 75l83 203h51l64 -365h-64l-33 201l-2 23q0 4 -0.5 11t-0.5 10t0.5 9.5t0.5 10.5q-2 -12 -11 -41l-5 -16l-85 -212h-31l-84 206l-7 22q-4 12 -11 41q2 -14 2 -24q0 -11 -1 -17
l-1 -13l-35 -211h-64z" />
    <glyph glyph-name="Omega" unicode="&#x2126;" horiz-adv-x="830" 
d="M470 90h123q50 0 67.5 17.5t20.5 68.5h23v-176h-272v180q77 15 122.5 76.5t45.5 151.5q0 106 -59 168.5t-157 62.5t-157 -63t-59 -168q0 -91 44 -151.5t124 -76.5v-180h-272v176h23q3 -51 20.5 -68.5t67.5 -17.5h123v59q-118 21 -183 89t-65 170q0 120 91.5 193.5
t242.5 73.5q150 0 242 -73.5t92 -193.5q0 -101 -64.5 -169t-183.5 -90v-59z" />
    <glyph glyph-name="partialdiff" unicode="&#x2202;" horiz-adv-x="534" 
d="M313 357q28 -21 45 -70q12 47 12 148q0 167 -63 167q-10 0 -49.5 -35t-56.5 -35q-34 0 -37 32q0 30 29.5 49.5t72.5 21.5q78 0 124 -72.5t46 -195.5q0 -160 -63.5 -270t-158.5 -110q-68 0 -110 51.5t-42 136.5q0 81 53 143t125 62q44 0 73 -23zM319 317q-21 32 -63 32
q-53 0 -86.5 -60.5t-33.5 -160.5q0 -56 21.5 -87.5t62.5 -31.5q52 0 86.5 61.5t34.5 153.5q0 58 -22 93z" />
    <glyph glyph-name="Delta" unicode="&#x2206;" horiz-adv-x="662" 
d="M319 672l276 -672h-574l276 672h22zM279 504l-187 -459h373z" />
    <glyph glyph-name="product" unicode="&#x220f;" horiz-adv-x="890" 
d="M30 -176h88v880h-88v40h767v-40h-88v-880h88v-40h-264v40h84v880h-407v-880h84v-40h-264v40z" />
    <glyph glyph-name="summation" unicode="&#x2211;" horiz-adv-x="771" 
d="M592 729q18 -14 26 -86l15 -129h-44q-32 106 -83.5 144t-170.5 39h-132l315 -431l-344 -394h187q120 0 170.5 29.5t84.5 118.5h45l-32 -137q-22 -98 -111 -99h-482l389 446l-375 514h460q66 0 82 -15z" />
    <glyph glyph-name="radical" unicode="&#x221a;" horiz-adv-x="594" 
d="M594 811v-47h-57l-290 -784h-32l-156 431l-61 -22l-12 39l138 48l125 -346l252 681h93z" />
    <glyph glyph-name="infinity" unicode="&#x221e;" horiz-adv-x="771" 
d="M430 144q-36 31 -64 94q-66 -124 -157 -124q-64 0 -110 53.5t-46 130.5q0 80 40.5 133t105.5 53q47 0 82.5 -29.5t65.5 -94.5q62 124 157 124q64 0 109.5 -53t45.5 -131q0 -82 -39.5 -134t-105.5 -52q-46 0 -84 30zM257 205q28 26 73 122q-52 93 -135 93q-50 0 -83.5 -35
t-33.5 -90q0 -53 29.5 -88t76.5 -35q40 0 73 33zM453 390q-33 -36 -70 -119q46 -90 135 -93q50 0 83.5 35t33.5 90q0 56 -30 89.5t-80 33.5q-37 0 -72 -36z" />
    <glyph glyph-name="integral" unicode="&#x222b;" horiz-adv-x="296" 
d="M200 726q38 31 83 31q35 0 58 -18.5t23 -48.5q0 -45 -49 -48q-18 0 -31.5 16t-23.5 32t-18 16q-50 0 -57 -310q-2 -86 -5.5 -149.5t-9.5 -127t-15.5 -107.5t-24 -82.5t-34 -61.5t-46 -36t-59.5 -13t-57 18t-24 49q0 47 49 47q18 0 31.5 -15.5t23.5 -31t19 -16.5
q47 0 57 324q9 248 17 311q12 90 34 140t59 81z" />
    <glyph glyph-name="approxequal" unicode="&#x2248;" horiz-adv-x="594" 
d="M102 153q-33 -14 -87 -53v77q92 57 161 58q29 1 116 -23.5t98 -24.5q55 0 144 67v-78q-77 -52 -149 -55q-15 0 -103 23.5t-117 23.5t-63 -15zM104 273q-31 -13 -89 -54v77q90 57 160 57q28 0 115.5 -23.5t99.5 -23.5q30 0 61.5 14.5t82.5 51.5v-77q-80 -55 -149 -55
q-17 0 -104 23.5t-111 23.5q-35 0 -66 -14z" />
    <glyph glyph-name="notequal" unicode="&#x2260;" horiz-adv-x="594" 
d="M488 410l-75 -74h91v-64h-149l-73 -72h222v-64h-281l-118 -118l-43 44l74 74h-91v64h150l73 72h-223v64h281l118 118z" />
    <glyph glyph-name="lessequal" unicode="&#x2264;" horiz-adv-x="594" 
d="M506 86v-68h-463v68h463zM506 388l-344 -108l344 -107v-70l-462 145v65l462 145v-70z" />
    <glyph glyph-name="greaterequal" unicode="&#x2265;" horiz-adv-x="594" 
d="M506 86v-68h-463v68h463zM506 313v-65l-463 -145v70l344 107l-344 108v70z" />
    <glyph glyph-name="lozenge" unicode="&#x25ca;" horiz-adv-x="534" 
d="M3 289l244 518l244 -518l-244 -522zM435 289l-188 399l-188 -399l188 -403z" />
    <glyph glyph-name="At" unicode="&#xf64d;" horiz-adv-x="1209" 
d="M1124 326q0 -85 -30 -149.5t-77.5 -100t-98 -52.5t-100.5 -17h-104v89q-17 -39 -55 -70.5t-102 -31.5q-105 0 -167 71.5t-62 183.5q0 109 64 180t162 71q104 0 159 -92v82h130v-394q84 0 133 68t49 162q0 148 -111.5 234t-278.5 86q-104 0 -190 -32t-142 -86.5t-87 -126
t-31 -151.5q0 -168 103.5 -272.5t298.5 -104.5q60 0 121 9.5t92 19.5l32 9q5 -17 22 -80q-121 -39 -269 -39q-237 0 -368 128.5t-131 328.5q0 137 75.5 247.5t201 170t273.5 59.5q217 0 352.5 -109.5t135.5 -290.5zM719 247q0 61 -33 103t-92 42q-60 0 -93 -46.5t-33 -93.5
q0 -31 11.5 -63t42 -58t73.5 -26q59 0 91.5 39.5t32.5 102.5z" />
    <glyph glyph-name="_273" horiz-adv-x="852" 
d="M459 228q-15 -36 -43 -56.5t-59 -20.5q-57 0 -93.5 46t-36.5 129q0 111 58 186t127 75q31 0 55.5 -16t34.5 -44l8 51h51l-49 -293q-3 -19 -3 -34q0 -56 43 -56q11 0 31 14.5t42.5 40.5t38.5 73t16 102q0 111 -71 182.5t-180 71.5q-128 0 -215.5 -92.5t-87.5 -231.5
q0 -143 88.5 -231t202.5 -88q74 0 146 38t129 113l15 -50q-53 -75 -131.5 -113.5t-163.5 -38.5q-152 0 -253.5 105.5t-101.5 267.5q0 155 104 266t265 111q134 0 222.5 -87t88.5 -218q0 -121 -60.5 -202t-133.5 -81q-39 0 -61.5 23t-22.5 58zM290 292q4 -96 73 -96
q31 0 60 41.5t45 133.5l9 52q4 23 4 41q0 35 -18 56t-47 21q-42 0 -84 -63.5t-42 -173.5v-12z" />
    <glyph glyph-name="nbspace" horiz-adv-x="500" 
 />
    <glyph glyph-name="fi" 
d="M85 239l131 130l-130 129l84 85l129 -130l130 130l101 -102l-130 -130l130 -129l-84 -84l-129 130l-130 -130z" />
    <glyph glyph-name="fl" horiz-adv-x="435" 
d="M42 0v119h106v483h-105v119h249v-602h106v-119h-356z" />
    <glyph glyph-name="apple" horiz-adv-x="854" 
d="M413 593q-3 0 -4 0.5t-1 3.5t-1 4q0 64 43.5 118.5t118.5 68.5q0 -19 1 -30q0 -61 -49.5 -113t-100.5 -52h-4h-3zM650 264q31 -44 85 -67q-56 -120 -99.5 -167t-100.5 -47q-14 0 -63.5 16t-60.5 16q-12 0 -63.5 -16t-62.5 -16q-30 0 -63 21q-73 55 -119 159t-48 197
q0 106 61 174t158 68q22 0 75 -17t61 -17q6 0 59 17t75 17q106 0 175 -80q-98 -64 -98 -160q0 -54 29 -98z" />
    </font>
</defs>
</svg>
